<svg width="113" height="20" viewBox="0 0 113 20" fill="none" xmlns="http://www.w3.org/2000/svg">
<path d="M17.047 0.20531L9.92166 19H7.77062L0.645311 0.20531H2.6888L8.84614 16.9565L15.0573 0.20531H17.047ZM21.7572 0.20531V19H19.875V0.20531H21.7572ZM40.1893 19H38.3072L27.9015 3.18988V19H26.0194V0.20531H27.9015L38.3072 15.9885V0.20531H40.1893V19ZM43.5919 9.58921C43.5919 7.7429 43.9952 6.09378 44.8019 4.64183C45.6085 3.17195 46.7109 2.03369 48.1091 1.22705C49.5073 0.40249 51.0668 -0.00979253 52.7876 -0.00979253C54.8848 -0.00979253 56.6774 0.492116 58.1652 1.49593C59.6709 2.48183 60.7644 3.88 61.4455 5.69046H59.2407C58.7029 4.41776 57.8784 3.4229 56.767 2.70589C55.6736 1.98888 54.3471 1.63037 52.7876 1.63037C51.4073 1.63037 50.1615 1.95303 49.0502 2.59834C47.9567 3.24365 47.0963 4.17577 46.4689 5.39469C45.8415 6.59568 45.5278 7.99386 45.5278 9.58921C45.5278 11.1846 45.8415 12.5827 46.4689 13.7837C47.0963 14.9847 47.9567 15.9079 49.0502 16.5532C50.1615 17.1985 51.4073 17.5212 52.7876 17.5212C54.3471 17.5212 55.6736 17.1716 56.767 16.4725C57.8784 15.7555 58.7029 14.7696 59.2407 13.5149H61.4455C60.7644 15.3074 59.6709 16.6966 58.1652 17.6825C56.6595 18.6684 54.8669 19.1613 52.7876 19.1613C51.0668 19.1613 49.5073 18.758 48.1091 17.9514C46.7109 17.1268 45.6085 15.9885 44.8019 14.5366C43.9952 13.0846 43.5919 11.4355 43.5919 9.58921ZM67.0781 1.73793V8.75568H74.2034V10.3152H67.0781V17.4405H75.0101V19H65.196V0.178422H75.0101V1.73793H67.0781ZM88.721 19L84.0694 11.1487H80.6009V19H78.7187V0.20531H84.3652C86.4625 0.20531 88.0488 0.707219 89.1244 1.71104C90.2178 2.71485 90.7645 4.03237 90.7645 5.66357C90.7645 7.02589 90.3702 8.19104 89.5815 9.159C88.8107 10.109 87.6635 10.7275 86.1398 11.0143L90.9796 19H88.721ZM80.6009 9.6161H84.3921C85.862 9.6161 86.9644 9.25759 87.6993 8.54058C88.4522 7.82357 88.8286 6.86456 88.8286 5.66357C88.8286 4.42672 88.4701 3.47668 87.7531 2.81344C87.0361 2.13228 85.9068 1.7917 84.3652 1.7917H80.6009V9.6161ZM102.942 19.1882C101.204 19.1882 99.6263 18.7849 98.2102 17.9783C96.7941 17.1537 95.6738 16.0154 94.8492 14.5635C94.0426 13.0936 93.6392 11.4355 93.6392 9.58921C93.6392 7.7429 94.0426 6.09378 94.8492 4.64183C95.6738 3.17195 96.7941 2.03369 98.2102 1.22705C99.6263 0.40249 101.204 -0.00979253 102.942 -0.00979253C104.699 -0.00979253 106.286 0.40249 107.702 1.22705C109.118 2.03369 110.229 3.17195 111.036 4.64183C111.842 6.09378 112.246 7.7429 112.246 9.58921C112.246 11.4355 111.842 13.0936 111.036 14.5635C110.229 16.0154 109.118 17.1537 107.702 17.9783C106.286 18.7849 104.699 19.1882 102.942 19.1882ZM102.942 17.548C104.341 17.548 105.595 17.2254 106.707 16.5801C107.818 15.9348 108.696 15.0116 109.342 13.8106C109.987 12.5917 110.31 11.1846 110.31 9.58921C110.31 7.99386 109.987 6.59568 109.342 5.39469C108.696 4.19369 107.818 3.27054 106.707 2.62523C105.595 1.97992 104.341 1.65726 102.942 1.65726C101.544 1.65726 100.29 1.97992 99.1782 2.62523C98.0668 3.27054 97.1884 4.19369 96.5431 5.39469C95.8978 6.59568 95.5752 7.99386 95.5752 9.58921C95.5752 11.1846 95.8978 12.5917 96.5431 13.8106C97.1884 15.0116 98.0668 15.9348 99.1782 16.5801C100.29 17.2254 101.544 17.548 102.942 17.548Z" fill="url(#paint0_linear_2_39)"/>
<defs>
<linearGradient id="paint0_linear_2_39" x1="34.5" y1="-33.5" x2="131.5" y2="45" gradientUnits="userSpaceOnUse">
<stop stop-color="white"/>
<stop offset="1" stop-color="#D6D6D6"/>
</linearGradient>
</defs>
</svg>
